<svg xmlns="http://www.w3.org/2000/svg" viewBox="0 0 441.5 441.5"><defs><style>.cls-1{fill:#282828;}</style></defs><title>logo</title><g id="Layer_2" data-name="Layer 2"><g id="Logo"><g id="Logo-2" data-name="Logo"><path class="cls-1" d="M142.64,441.5a34,34,0,0,1-34-34V305.65h13.58V407.54a20.4,20.4,0,0,0,20.38,20.38Z"/><path class="cls-1" d="M203.77,441.5a34,34,0,0,1-34-34V364.07h13.58v43.47a20.38,20.38,0,0,0,40.75,0V364.07h13.58v43.47A34,34,0,0,1,203.77,441.5Z"/><path class="cls-1" d="M298.86,360a34,34,0,0,1,34,34v43.47H319.24V394a20.38,20.38,0,0,0-40.75,0v43.47H264.9V394A34,34,0,0,1,298.86,360Z"/><path class="cls-1" d="M40.75,360a40.75,40.75,0,1,0,27.17,71.1v6.33H81.51V400.74A40.8,40.8,0,0,0,40.75,360Zm0,67.92a27.17,27.17,0,1,1,27.17-27.17A27.2,27.2,0,0,1,40.75,427.91Z"/><path class="cls-1" d="M400.74,360a40.75,40.75,0,1,0,27.17,71.1v6.33H441.5V400.74A40.8,40.8,0,0,0,400.74,360Zm0,67.92a27.17,27.17,0,1,1,27.17-27.17A27.2,27.2,0,0,1,400.74,427.91Z"/><path class="cls-1" d="M220.75,0A139.24,139.24,0,1,0,360,139.24,139.24,139.24,0,0,0,220.75,0Zm0,139.24V264.9a125.66,125.66,0,0,1,0-251.31Zm13.58,124.88V14.36c21.54,15.12,37.36,65.3,37.36,124.88S255.87,249,234.33,264.12Zm22.88-4.7c16.64-22.13,28.06-67.63,28.06-120.18S273.86,41.19,257.21,19.06c32.5,20.14,55.23,66.36,55.23,120.18S289.71,239.28,257.21,259.42Zm39.6-20.17c18-24.95,29.22-60.52,29.22-100s-11.24-75.07-29.22-100a125.65,125.65,0,0,1,0,200Z"/></g></g></g></svg>